<?xml version="1.0" standalone="no"?><!DOCTYPE svg PUBLIC "-//W3C//DTD SVG 1.1//EN" "http://www.w3.org/Graphics/SVG/1.1/DTD/svg11.dtd"><svg t="1610457965467" class="icon" viewBox="0 0 1820 1024" version="1.1" xmlns="http://www.w3.org/2000/svg" p-id="2617" xmlns:xlink="http://www.w3.org/1999/xlink" width="355.46875" height="200"><defs><style type="text/css"></style></defs><path d="M521.443556 511.772444c0 214.480593 173.871407 388.361481 388.361481 388.361482 214.480593 0 388.361481-173.871407 388.361482-388.361482 0-214.490074-173.871407-388.361481-388.361482-388.361481-214.490074 0-388.361481 173.871407-388.361481 388.361481z m0 0" fill="#03A9F5" p-id="2618"></path><path d="M1068.676741 278.59437l-323.527111 4.626963c-12.325926 0.180148-22.954667 11.112296-22.774519 23.438223l5.95437 415.962074c0.180148 12.325926 11.112296 22.954667 23.438223 22.774518l323.527111-4.626963c12.325926-0.180148 22.954667-11.112296 22.774518-23.438222l-5.95437-415.962074c-0.170667-12.316444-11.112296-22.945185-23.438222-22.774519z m-252.53926 119.182223l138.657186-1.98163 0.502518 35.432296-138.657185 1.98163-0.502519-35.432296z m0.986075 69.328592l138.657185-1.981629 0.502518 35.432296-138.657185 1.981629-0.502518-35.432296z m205.871407 64.853334l-124.586667 123.515259c-6.07763 6.248296-15.341037 4.845037-20.024889 0.284444l-56.206222-51.588741c-4.693333-4.551111-4.778667-10.714074-1.763555-15.388444l4.532148-6.229333c3.015111-4.664889 9.178074-4.750222 15.36-3.299556l45.093926 28.634074 3.081481-0.047407 115.759408-94.113185c4.579556-3.147852 10.742519-3.233185 15.407407-0.218074l3.128889 3.034074c4.683852 4.570074 4.769185 10.733037 0.218074 15.416889z m0 0" fill="#FFFFFF" p-id="2619"></path></svg>