<?xml version="1.0" standalone="no"?><!DOCTYPE svg PUBLIC "-//W3C//DTD SVG 1.1//EN" "http://www.w3.org/Graphics/SVG/1.1/DTD/svg11.dtd"><svg t="1610457791651" class="icon" viewBox="0 0 1820 1024" version="1.1" xmlns="http://www.w3.org/2000/svg" p-id="1803" xmlns:xlink="http://www.w3.org/1999/xlink" width="355.46875" height="200"><defs><style type="text/css"></style></defs><path d="M521.443556 511.772444c0 214.480593 173.871407 388.361481 388.361481 388.361482 214.480593 0 388.361481-173.871407 388.361482-388.361482 0-214.490074-173.871407-388.361481-388.361482-388.361481-214.490074 0-388.361481 173.871407-388.361481 388.361481z m0 0" fill="#4974EE" p-id="1804"></path><path d="M822.85037 504.045037v-17.246815h-79.578074v15.919408h15.919408v143.246222h47.74874V504.045037h15.909926z m-104.779851-31.838815h383.317333c9.28237-3.982222 9.28237-13.264593 0-18.564741-7.954963-6.627556-190.994963-139.264-190.994963-139.264S727.352889 447.004444 718.070519 453.641481c-9.291852 5.300148-9.291852 13.264593 0 18.564741z m192.32237-91.515259c15.919407 0 27.856593 11.937185 27.856592 27.856593s-11.937185 27.856593-27.856592 27.856592-27.856593-11.937185-27.856593-27.856592 11.937185-27.856593 27.856593-27.856593zM728.680296 661.873778h364.752593v15.919407h-364.752593v-15.919407z m-15.919407 33.166222h396.581926v14.592H712.760889v-14.592z m237.416296-190.994963v-15.919407h-79.578074v14.592H886.518519v143.246222h47.74874V504.045037h15.909926z m126.008889 0v-15.919407h-78.260148v14.592h14.592v143.246222h49.076148V504.045037h14.592z m0 0" fill="#FFFFFF" p-id="1805"></path></svg>