<?xml version="1.0" standalone="no"?><!DOCTYPE svg PUBLIC "-//W3C//DTD SVG 1.1//EN" "http://www.w3.org/Graphics/SVG/1.1/DTD/svg11.dtd"><svg t="1610457816548" class="icon" viewBox="0 0 1820 1024" version="1.1" xmlns="http://www.w3.org/2000/svg" p-id="1938" xmlns:xlink="http://www.w3.org/1999/xlink" width="355.46875" height="200"><defs><style type="text/css"></style></defs><path d="M521.860741 512c0 214.480593 173.871407 388.361481 388.361481 388.361481 214.480593 0 388.361481-173.871407 388.361482-388.361481 0-214.490074-173.871407-388.361481-388.361482-388.361481-214.490074 0-388.361481 173.871407-388.361481 388.361481z m0 0" fill="#03A9F5" p-id="1939"></path><path d="M1098.363259 304.516741v-13.387852c0-1.488593-1.488593-2.977185-1.488592-2.977185H723.569778c-1.488593 0-2.977185 1.488593-2.977185 2.977185v441.723259c0 1.488593 1.488593 2.977185 2.977185 2.977185h373.31437c1.488593 0 2.967704-1.488593 2.967704-2.977185V552.903111c0-2.977185-2.967704-5.944889-5.944889-5.944889-1.488593 0-2.977185 1.488593-4.465778 2.977185l-69.897481 89.239704c-4.465778 5.944889-13.387852 7.433481-19.332741 2.977185l-1.488593-1.488592-89.239703-90.737778c-5.95437-4.465778-5.95437-13.387852-1.488593-19.332741l190.369185-226.076444zM851.474963 671.886222c0 5.944889-4.465778 10.410667-10.410667 10.410667h-58.007703c-5.944889 0-10.410667-4.465778-10.410667-10.410667v-14.876444c0-5.944889 4.465778-10.410667 10.410667-10.410667h58.007703c5.944889 0 10.410667 4.465778 10.410667 10.410667v14.876444z m2.977185-127.905185h-75.851852c-2.977185 0-4.465778-2.977185-4.465777-4.465778v-23.798518c0-2.977185 2.977185-4.465778 4.465777-4.465778h96.673185c2.977185 0 4.465778 2.977185 4.465778 5.944889 0 1.488593 0 1.488593-1.488592 2.977185l-23.798519 23.808c2.967704-1.488593 1.479111 0 0 0z m124.928 121.950815c2.977185 2.977185 2.977185 8.922074 0 11.899259-1.488593 1.488593-2.977185 2.977185-5.944889 2.977185h-87.751111c-4.465778 0-7.433481-2.977185-7.433481-7.433481v-90.728296c0-4.465778 2.977185-7.433481 7.433481-8.922075 2.977185 0 4.465778 1.488593 5.944889 2.977186l87.751111 89.230222zM780.088889 407.144296c-2.977185 0-4.465778-2.977185-4.465778-4.465777v-23.798519c0-2.977185 1.488593-4.465778 4.465778-4.465778h208.222815c2.977185 0 4.465778 2.977185 4.465777 5.944889 0 1.488593 0 1.488593-1.488592 2.967704l-20.821333 23.798518H780.088889z m0 0" fill="#FFFFFF" p-id="1940"></path></svg>