<?xml version="1.0" standalone="no"?><!DOCTYPE svg PUBLIC "-//W3C//DTD SVG 1.1//EN" "http://www.w3.org/Graphics/SVG/1.1/DTD/svg11.dtd"><svg t="1610457988070" class="icon" viewBox="0 0 1820 1024" version="1.1" xmlns="http://www.w3.org/2000/svg" p-id="2889" xmlns:xlink="http://www.w3.org/1999/xlink" width="355.46875" height="200"><defs><style type="text/css"></style></defs><path d="M521.443556 511.772444c0 214.480593 173.871407 388.361481 388.361481 388.361482 214.480593 0 388.361481-173.871407 388.361482-388.361482 0-214.490074-173.871407-388.361481-388.361482-388.361481-214.490074 0-388.361481 173.871407-388.361481 388.361481z m0 0" fill="#4974EE" p-id="2890"></path><path d="M761.66637 313.675852h298.42963c26.529185 0 49.076148 17.246815 49.076148 38.46637v319.658667c0 21.219556-22.546963 38.46637-49.076148 38.46637H761.66637c-27.856593 1.327407-50.403556-15.919407-50.403555-37.138963V352.132741c0-21.219556 22.556444-38.456889 50.403555-38.456889z m14.592 224.151704c-7.954963 0-13.264593 6.627556-13.264592 13.264592 0 3.972741 1.327407 6.627556 3.982222 9.282371 2.654815 2.654815 5.300148 3.972741 9.28237 3.97274h96.824889c3.982222 0 6.637037-1.327407 9.282371-3.97274 2.654815-2.654815 3.982222-5.30963 3.982222-9.282371 0-7.954963-5.300148-13.264593-13.264593-13.264592H776.25837z m161.820445-63.668149c0-3.982222-1.327407-6.637037-3.982222-9.28237-2.654815-2.654815-5.300148-3.982222-9.282371-3.982222H776.25837c-3.982222 0-6.627556 1.327407-9.28237 3.982222-1.327407 2.654815-2.654815 5.300148-2.654815 9.28237 0 3.982222 1.327407 6.627556 3.972741 9.282371 2.654815 2.654815 5.30963 3.982222 9.28237 3.982222h147.228445c3.982222 0 6.637037-1.327407 9.28237-3.982222 2.664296-2.645333 3.991704-5.300148 3.991704-9.282371z m37.138963-76.923259c0-7.954963-5.30963-13.264593-13.264593-13.264592H776.25837c-3.982222 0-6.627556 1.327407-9.28237 3.982222-1.327407 1.327407-2.654815 5.300148-2.654815 9.28237 0 7.954963 5.300148 13.264593 13.264593 13.264593h185.694815c3.982222 0 6.627556-1.327407 9.28237-3.982222 1.327407-2.654815 2.654815-6.627556 2.654815-9.282371zM776.25837 614.760296c-7.954963 0-13.264593 6.637037-13.264592 13.264593 0 3.982222 1.327407 6.637037 3.982222 9.28237 2.654815 2.654815 5.300148 3.982222 9.28237 3.982222h96.824889c3.982222 0 6.637037-1.327407 9.282371-3.982222 2.654815-2.654815 3.982222-5.300148 3.982222-9.28237 0-7.954963-5.300148-13.264593-13.264593-13.264593H776.25837z m169.775408-39.793777l-17.246815-17.246815c-5.300148-5.300148-9.28237-11.937185-21.219556-11.937185-1.327407 1.327407-2.654815 0-3.982222 1.327407-2.654815 1.327407-9.28237 6.627556-7.954963 13.264593 0 0 1.327407 3.972741 2.654815 5.300148l50.403556 50.403555c6.627556 6.627556 7.954963 9.28237 14.592 5.300148l11.937185-13.264592 26.529185-26.529185 7.954963-9.282371 75.605333-75.605333c2.654815-3.982222 2.654815-11.937185 0-15.919408-3.982222-5.300148-13.264593-7.954963-19.892148-2.654814L957.970963 585.576296l33.156741-33.15674-33.156741 33.15674s-9.28237-9.28237-11.937185-10.609777z m0 0" fill="#FFFFFF" p-id="2891"></path></svg>