<?xml version="1.0" standalone="no"?><!DOCTYPE svg PUBLIC "-//W3C//DTD SVG 1.1//EN" "http://www.w3.org/Graphics/SVG/1.1/DTD/svg11.dtd"><svg t="1610457828343" class="icon" viewBox="0 0 1820 1024" version="1.1" xmlns="http://www.w3.org/2000/svg" p-id="2075" xmlns:xlink="http://www.w3.org/1999/xlink" width="355.46875" height="200"><defs><style type="text/css"></style></defs><path d="M521.860741 511.772444c0 214.480593 173.871407 388.361481 388.361481 388.361482 214.480593 0 388.361481-173.871407 388.361482-388.361482 0-214.490074-173.871407-388.361481-388.361482-388.361481-214.490074 0-388.361481 173.871407-388.361481 388.361481z m0 0" fill="#03A9F5" p-id="2076"></path><path d="M792.282074 446.65363c1.336889 8.00237 5.338074 13.330963 12.003556 17.341629V469.333333c-1.336889 36.010667 17.34163 69.347556 49.341629 86.679704h1.336889s14.667852 13.340444 54.679704 13.340444c38.674963 0 54.679704-13.340444 54.679704-13.340444 32.009481-17.34163 50.678519-50.678519 49.341629-86.679704v-4.001185c6.665481-4.001185 10.666667-10.666667 12.003556-17.341629v-41.33926l46.677333-17.332148 12.003556-4.001185 12.003555-4.001185L908.325926 311.969185l-185.362963 66.673778 69.347556 25.334518v42.676149z m116.024889 102.684444c-41.339259 0-77.349926-30.672593-81.351111-72.011852 26.671407 12.003556 54.679704 18.669037 82.678518 20.005926 28.008296-1.336889 54.679704-8.00237 80.014223-20.005926-5.328593 41.339259-40.00237 72.011852-81.34163 72.011852z m-89.353482-133.357037l89.353482 30.672593 90.680889-30.672593v24.007111c0 2.664296-9.339259 6.665481-14.667852 10.666667-1.336889 1.336889-2.664296 1.336889-4.001185 2.664296-21.333333 12.003556-46.677333 17.332148-70.674963 17.332148-25.334519 0-49.34163-6.665481-70.674963-18.669037-1.336889-1.336889-2.664296-1.336889-4.001185-2.664296-5.338074-4.001185-14.667852-8.00237-14.667852-10.666667v-22.670222h-1.346371z m0 0" fill="#FFFFFF" p-id="2077"></path><path d="M986.984296 562.678519L932.314074 661.361778l-8.00237-24.007111 14.667852-29.335704-29.335704-30.672593-29.335704 29.335704 14.667852 29.335704-9.339259 24.007111-53.342815-100.020148s-121.353481 65.34637-121.353482 118.689185c-1.336889 18.669037 5.338074 33.336889 22.670223 33.336889h353.393777c16.004741 0 22.670222-14.667852 22.670223-30.672593 0-52.005926-122.69037-118.679704-122.690371-118.679703z m0 0" fill="#FFFFFF" p-id="2078"></path></svg>