<?xml version="1.0" standalone="no"?><!DOCTYPE svg PUBLIC "-//W3C//DTD SVG 1.1//EN" "http://www.w3.org/Graphics/SVG/1.1/DTD/svg11.dtd"><svg t="1610457835276" class="icon" viewBox="0 0 1820 1024" version="1.1" xmlns="http://www.w3.org/2000/svg" p-id="2211" xmlns:xlink="http://www.w3.org/1999/xlink" width="355.46875" height="200"><defs><style type="text/css"></style></defs><path d="M521.860741 512c0 214.480593 173.871407 388.361481 388.361481 388.361481 214.480593 0 388.361481-173.871407 388.361482-388.361481 0-214.490074-173.871407-388.361481-388.361482-388.361481-214.490074 0-388.361481 173.871407-388.361481 388.361481z m0 0" fill="#4974EE" p-id="2212"></path><path d="M773.783704 642.692741c0 6.371556 5.101037 11.472593 11.472592 11.472592h261.394963V629.94963H785.265778c-6.381037 1.270519-11.482074 6.371556-11.482074 12.743111z m0 0" fill="#FFFFFF" p-id="2213"></path><path d="M1070.885926 349.430519v330.249481H785.265778c-20.404148 0-35.707259-16.57363-35.707259-35.707259 0-19.124148 16.57363-35.697778 35.707259-35.697778h261.394963V320.094815H773.783704c-26.775704 0-48.45037 21.674667-48.450371 48.45037v286.900148c0 26.775704 21.674667 48.45037 48.450371 48.450371H1095.111111V349.430519h-24.225185z m0 0" fill="#FFFFFF" p-id="2214"></path></svg>