<?xml version="1.0" standalone="no"?><!DOCTYPE svg PUBLIC "-//W3C//DTD SVG 1.1//EN" "http://www.w3.org/Graphics/SVG/1.1/DTD/svg11.dtd"><svg t="1610457945272" class="icon" viewBox="0 0 1820 1024" version="1.1" xmlns="http://www.w3.org/2000/svg" p-id="2482" xmlns:xlink="http://www.w3.org/1999/xlink" width="355.46875" height="200"><defs><style type="text/css"></style></defs><path d="M521.443556 511.772444c0 214.480593 173.871407 388.361481 388.361481 388.361482 214.480593 0 388.361481-173.871407 388.361482-388.361482 0-214.490074-173.871407-388.361481-388.361482-388.361481-214.490074 0-388.361481 173.871407-388.361481 388.361481z m0 0" fill="#03A9F5" p-id="2483"></path><path d="M938.666667 682.666667c7.850667 0 14.222222 6.371556 14.222222 14.222222v14.222222c0 7.860148-6.371556 14.222222-14.222222 14.222222h-56.888889c-7.850667 0-14.222222-6.371556-14.222222-14.222222v-14.222222c0-7.860148 6.362074-14.222222 14.222222-14.222222h56.888889z m-28.444445-298.666667c62.843259 0 113.777778 50.944 113.777778 113.777778 0 36.570074-17.635556 68.408889-52.878222 95.544889l-3.982222 3.005629-0.028445 28.956445c-0.009481 15.985778-12.961185 28.937481-28.946963 28.946963H924.444444l0.018963-131.811556c10.970074-6.33363 16.421926-19.152593 13.387852-31.450074-3.034074-12.297481-13.833481-21.105778-26.481778-21.608296-12.657778-0.502519-24.120889 7.414519-28.122074 19.437037-4.001185 12.013037 0.417185 25.230222 10.846815 32.407704l1.905778 1.204148V654.222222h-13.719704c-7.68 0-15.03763-3.053037-20.470518-8.476444a28.957393 28.957393 0 0 1-8.476445-20.470519v2.891852a73.695763 73.695763 0 0 0-21.323852-49.938963C808.305778 554.581333 796.444444 527.777185 796.444444 497.777778c0-62.833778 50.944-113.777778 113.777778-113.777778z m184.888889 99.555556c7.860148 0 14.222222 6.371556 14.222222 14.222222 0 7.860148-6.371556 14.222222-14.222222 14.222222h-28.444444c-7.850667 0-14.222222-6.371556-14.222223-14.222222 0-7.850667 6.371556-14.222222 14.222223-14.222222h28.444444z m-341.333333 0c7.850667 0 14.222222 6.371556 14.222222 14.222222 0 7.860148-6.362074 14.222222-14.222222 14.222222h-28.444445c-7.860148 0-14.222222-6.371556-14.222222-14.222222 0-7.850667 6.371556-14.222222 14.222222-14.222222h28.444445z m297.244444-126.577778c2.673778 2.664296 4.171852 6.286222 4.171852 10.059852 0 3.77363-1.498074 7.395556-4.171852 10.059851l-20.119703 20.110223c-5.584593 5.394963-14.449778 5.30963-19.939556-0.170667-5.489778-5.489778-5.56563-14.354963-0.170667-19.939556l20.110223-20.119703c5.556148-5.556148 14.554074-5.556148 20.110222 0h0.009481z m-261.480296 0l20.110222 20.119703c5.394963 5.584593 5.30963 14.449778-0.170667 19.939556-5.489778 5.489778-14.354963 5.56563-19.939555 0.170667l-20.119704-20.110223c-5.556148-5.556148-5.556148-14.563556 0-20.119703 5.556148-5.556148 14.563556-5.556148 20.119704 0zM910.222222 298.666667c7.860148 0 14.222222 6.371556 14.222222 14.222222v28.444444c0 7.850667-6.371556 14.222222-14.222222 14.222223-7.850667 0-14.222222-6.362074-14.222222-14.222223v-28.444444c0-7.850667 6.371556-14.222222 14.222222-14.222222z m0 0" fill="#FFFFFF" p-id="2484"></path></svg>