<?xml version="1.0" standalone="no"?><!DOCTYPE svg PUBLIC "-//W3C//DTD SVG 1.1//EN" "http://www.w3.org/Graphics/SVG/1.1/DTD/svg11.dtd"><svg t="1610457854626" class="icon" viewBox="0 0 1820 1024" version="1.1" xmlns="http://www.w3.org/2000/svg" p-id="2347" xmlns:xlink="http://www.w3.org/1999/xlink" width="355.46875" height="200"><defs><style type="text/css"></style></defs><path d="M521.443556 511.772444c0 214.480593 173.871407 388.361481 388.361481 388.361482 214.480593 0 388.361481-173.871407 388.361482-388.361482 0-214.490074-173.871407-388.361481-388.361482-388.361481-214.490074 0-388.361481 173.871407-388.361481 388.361481z m0 0" fill="#03A9F5" p-id="2348"></path><path d="M725.750519 341.560889l0.398222 0.009481c13.454222 0.758519 27.401481 2.512593 41.86074 5.281186v136.504888l28.444445-28.444444 28.444444 28.444444V362.628741c22.670222 8.96 46.364444 22.044444 71.10163 39.319703v209.389037c0.009481 7.528296 5.878519 13.738667 13.387852 14.184297 7.509333 0.436148 14.070519-5.044148 14.952296-12.515556l0.104296-1.668741V401.938963c32.625778-22.755556 63.42163-38.276741 92.434963-46.573037 27.420444-7.831704 53.229037-12.430222 77.416297-13.795556 7.841185-0.436148 14.544593 5.556148 14.990222 13.397334l0.028444 0.824889v255.886222c0 7.604148-5.982815 13.861926-13.577481 14.203259-26.282667 1.175704-52.574815 5.831111-78.857482 13.909333-30.814815 9.481481-61.620148 23.703704-92.434963 42.657186h-28.444444c-30.814815-18.953481-61.620148-33.175704-92.434963-42.657186a315.680237 315.680237 0 0 0-78.848-13.909333c-7.604148-0.341333-13.586963-6.608593-13.577481-14.222222V355.792593c-0.009481-7.215407 5.394963-13.293037 12.553481-14.136889l2.057482-0.085334v-0.009481z m0 0" fill="#FFFFFF" p-id="2349"></path></svg>